<svg width="10" height="10" viewBox="0 0 10 10" fill="none" xmlns="http://www.w3.org/2000/svg">
<path d="M3.94782 4.17921L7.78794 0.285715C8.16367 -0.0952385 8.77284 -0.0952385 9.14857 0.285715L9.71821 0.863268C10.0939 1.24422 10.0939 1.86187 9.71821 2.24282L5.87808 6.13632L3.94782 4.17921Z" fill="#C4C4C4"/>
<path d="M3.40475 4.72983L2.6448 7.45745L5.33502 6.68694L3.40475 4.72983Z" fill="#C4C4C4"/>
<path d="M0 1.22059C0 0.681844 0.430747 0.245102 0.962115 0.245102H6.73481L5.77269 1.22059H0.962115V9.02451H8.65904V4.63481L9.62115 3.65932V9.02451C9.62115 9.56326 9.19041 10 8.65904 10H0.962115C0.430747 10 0 9.56326 0 9.02451V1.22059Z" fill="#C4C4C4"/>
</svg>
